HIERARCHY
ROOT root
{
	OFFSET 0.000000 0.000000 0.000000
	CHANNELS 6 Xposition Yposition Zposition Zrotation Yrotation Xrotation
	JOINT lhip
	{
		OFFSET 0.058581 -0.082280 -0.017664
		CHANNELS 3 Zrotation Yrotation Xrotation
		JOINT lknee
		{
			OFFSET 0.043451 -0.386469 0.008037
			CHANNELS 3 Zrotation Yrotation Xrotation
			JOINT lankle
			{
				OFFSET -0.014790 -0.426874 -0.037428
				CHANNELS 3 Zrotation Yrotation Xrotation
				JOINT ltoe
				{
					OFFSET 0.041054 -0.060286 0.122042
					CHANNELS 3 Zrotation Yrotation Xrotation
					End Site
					{
						OFFSET 0.000000 0.000000 0.000000
					}
				}
			}
		}
	}
	JOINT rhip
	{
		OFFSET -0.060310 -0.090513 -0.013543
		CHANNELS 3 Zrotation Yrotation Xrotation
		JOINT rknee
		{
			OFFSET -0.043257 -0.383688 -0.004843
			CHANNELS 3 Zrotation Yrotation Xrotation
			JOINT rankle
			{
				OFFSET 0.019056 -0.420046 -0.034562
				CHANNELS 3 Zrotation Yrotation Xrotation
				JOINT rtoe
				{
					OFFSET -0.034840 -0.062106 0.130323
					CHANNELS 3 Zrotation Yrotation Xrotation
					End Site
					{
						OFFSET 0.000000 0.000000 0.000000
					}
				}
			}
		}
	}
	JOINT lowerback
	{
		OFFSET 0.004439 0.124404 -0.038385
		CHANNELS 3 Zrotation Yrotation Xrotation
		JOINT upperback
		{
			OFFSET 0.004488 0.137956 0.026820
			CHANNELS 3 Zrotation Yrotation Xrotation
			JOINT chest
			{
				OFFSET -0.002265 0.056032 0.002855
				CHANNELS 3 Zrotation Yrotation Xrotation
				JOINT lowerneck
				{
					OFFSET -0.013390 0.211636 -0.033468
					CHANNELS 3 Zrotation Yrotation Xrotation
					JOINT upperneck
					{
						OFFSET 0.010113 0.088937 0.050410
						CHANNELS 3 Zrotation Yrotation Xrotation
						End Site
						{
							OFFSET 0.000000 0.000000 0.000000
						}
					}
				}
				JOINT lclavicle
				{
					OFFSET 0.071702 0.114000 -0.018898
					CHANNELS 3 Zrotation Yrotation Xrotation
					JOINT lshoulder
					{
						OFFSET 0.122921 0.045205 -0.019046
						CHANNELS 3 Zrotation Yrotation Xrotation
						JOINT lelbow
						{
							OFFSET 0.255332 -0.015649 -0.022946
							CHANNELS 3 Zrotation Yrotation Xrotation
							JOINT lwrist
							{
								OFFSET 0.265709 0.012698 -0.007375
								CHANNELS 3 Zrotation Yrotation Xrotation
								End Site
								{
									OFFSET 0.000000 0.000000 0.000000
								}
							}
						}
					}
				}
				JOINT rclavicle
				{
					OFFSET -0.082954 0.112472 -0.023707
					CHANNELS 3 Zrotation Yrotation Xrotation
					JOINT rshoulder
					{
						OFFSET -0.113228 0.046853 -0.008472
						CHANNELS 3 Zrotation Yrotation Xrotation
						JOINT relbow
						{
							OFFSET -0.260127 -0.014369 -0.031269
							CHANNELS 3 Zrotation Yrotation Xrotation
							JOINT rwrist
							{
								OFFSET -0.269108 0.006794 -0.006027
								CHANNELS 3 Zrotation Yrotation Xrotation
								End Site
								{
									OFFSET 0.000000 0.000000 0.000000
								}
							}
						}
					}
				}
			}
		}
	}
}
MOTION
Frames: 11
Frame Time: 0.033333
-0.025081 -0.084619 0.213926 52.236020 73.882053 171.616029 1.994064 6.521826 11.754555 -3.997077 -26.519343 26.329133 -0.419582 9.965930 1.131684 0.000000 -0.000000 0.000000 -3.921815 8.585606 -50.373468 -4.910786 -21.109022 65.089902 8.572122 -4.114706 -1.998757 0.000000 -0.000000 0.000000 1.080055 -16.904514 57.807120 3.366330 -7.656017 -8.419630 2.687758 -9.216115 -1.663507 -20.131475 17.409329 -4.713670 -16.422884 -1.237629 14.548658 6.014694 -46.919946 -1.387956 2.089537 -18.349625 -26.672872 16.886034 -25.378215 6.416454 -21.410852 1.167609 28.677971 6.192245 46.935450 -12.122815 89.993572 46.204035 37.338176 -14.136482 37.479188 -11.151415 -25.554616 16.590094 0.764245 
-0.025547 -0.083739 0.214445 52.204437 73.977506 171.814865 2.008898 6.405491 11.614653 -4.001325 -26.313147 26.305433 -0.107077 9.733275 0.599243 0.000000 -0.000000 0.000000 -4.312799 9.044715 -50.613504 -4.206870 -21.328170 64.736625 8.232344 -4.972378 -2.111239 0.000000 -0.000000 0.000000 1.111556 -16.665198 57.216906 3.571030 -7.723377 -7.566237 2.960167 -9.529515 -2.240621 -21.087625 17.046573 -4.988333 -15.681558 -0.659473 14.270410 4.164872 -46.969885 -0.811063 2.488730 -17.760983 -27.062970 17.296164 -26.532364 4.974941 -21.409975 2.460880 30.969075 6.319787 47.303913 -11.590722 89.852889 46.443945 37.708089 -14.278588 37.337060 -12.114675 -25.620191 16.885353 1.568207 
-0.025296 -0.083746 0.214576 52.121396 74.056994 171.695182 2.019066 6.703073 11.460583 -3.887174 -26.094744 26.622867 -0.390361 9.411866 0.581070 0.000000 -0.000000 0.000000 -4.241547 9.046097 -50.609605 -4.583453 -21.333855 65.011168 8.282731 -4.651538 -1.996106 0.000000 -0.000000 0.000000 1.130257 -16.556440 57.368604 3.557930 -7.727601 -7.494840 3.112222 -9.643191 -2.459558 -21.153260 16.793476 -4.824650 -15.625008 -0.784678 13.863453 3.763509 -46.919192 -0.195038 1.802968 -17.403279 -28.034281 18.544847 -27.975611 4.855936 -22.186177 2.976547 31.623172 6.312594 47.122945 -11.661994 90.172370 46.101234 37.350084 -14.146043 37.642660 -11.270935 -25.095903 16.901435 1.415586 
-0.024988 -0.083557 0.214662 52.398180 74.100610 172.024262 2.117561 6.806204 11.431551 -3.765379 -26.145522 26.577633 -0.572932 9.130340 0.294037 0.000000 -0.000000 0.000000 -4.175341 9.102611 -50.739115 -4.905435 -21.378545 65.247557 8.333122 -4.417423 -2.157037 0.000000 -0.000000 0.000000 1.223921 -16.610728 57.393021 3.562940 -7.679058 -7.586364 3.166533 -9.707508 -2.423563 -21.028403 16.561415 -4.888543 -15.775265 -0.994141 13.981769 3.637628 -46.726482 0.196423 0.860901 -17.384341 -29.043612 20.079399 -29.221147 4.797303 -23.003198 3.283687 32.109446 6.157999 46.851351 -11.812314 90.756552 45.803214 37.235118 -14.075089 37.837444 -10.387035 -25.063264 16.974658 1.052901 
-0.024903 -0.083467 0.214717 52.543254 74.125857 172.170876 2.130812 6.840201 11.355971 -3.728636 -26.114239 26.735367 -0.683815 8.990483 0.214696 0.000000 -0.000000 0.000000 -4.137535 9.131865 -50.787740 -5.108119 -21.430862 65.383781 8.381361 -4.348649 -2.092418 0.000000 -0.000000 0.000000 1.251776 -16.650592 57.451510 3.545079 -7.632870 -7.668789 3.209636 -9.714877 -2.473470 -21.078189 16.463658 -4.816599 -15.834058 -0.976592 13.960445 3.696262 -46.627880 0.303730 0.377172 -17.369326 -29.203597 20.569413 -29.682550 4.817035 -23.212867 3.257085 32.185339 6.037634 46.759290 -11.866006 90.989611 45.565497 37.109940 -14.214214 37.999324 -10.119159 -24.800760 17.013179 0.988153 
-0.024589 -0.083208 0.214720 52.675163 74.096230 172.320887 2.111290 6.987391 11.009162 -3.695598 -25.891864 27.263548 -0.793246 8.809250 0.324331 0.000000 -0.000000 0.000000 -4.085061 9.101011 -50.836181 -5.309455 -21.397582 65.505022 8.337209 -4.177712 -2.091900 0.000000 -0.000000 0.000000 1.288123 -16.809840 57.590930 3.507186 -7.614721 -7.889524 3.275223 -9.724745 -2.534466 -21.030633 16.333000 -4.787169 -15.826587 -0.590009 13.972644 3.770140 -46.407915 0.399411 -0.452593 -17.347828 -29.539619 21.284516 -30.480501 4.916076 -23.444883 3.214947 32.282415 5.898346 46.644207 -11.793698 91.353333 45.387882 36.933107 -14.185262 38.114806 -9.648689 -24.817666 17.011753 0.953687 
-0.024494 -0.083067 0.214789 52.931308 74.064150 172.545871 2.157516 6.928646 11.134507 -3.621603 -25.960823 27.190794 -0.825515 8.690679 -0.013506 0.000000 -0.000000 0.000000 -4.123753 9.119451 -50.796003 -5.422421 -21.555130 65.573835 8.377543 -4.044823 -2.173331 0.000000 -0.000000 0.000000 1.355543 -16.923645 57.532503 3.497244 -7.616047 -7.857811 3.209792 -9.718972 -2.375060 -20.633449 16.061279 -4.659984 -15.714284 -1.164426 14.050292 3.911576 -46.241633 0.193043 -0.954384 -17.572411 -29.610144 22.070328 -30.823862 4.729022 -23.833627 3.348809 32.483133 5.731036 46.477259 -12.068748 91.579664 45.172843 36.945033 -14.206055 38.262331 -9.271013 -24.720514 16.964733 0.823642 
-0.024364 -0.083260 0.214578 52.712596 74.040987 172.288376 2.035280 7.060311 10.992840 -3.576893 -25.861027 27.470540 -0.859289 8.652601 0.242691 0.000000 -0.000000 0.000000 -4.139425 9.023910 -50.753350 -5.519511 -21.518096 65.655837 8.356141 -3.973006 -2.100453 0.000000 -0.000000 0.000000 1.363641 -16.942003 57.622815 3.467505 -7.704065 -7.931348 3.224106 -9.749066 -2.403410 -20.492165 15.920097 -4.563353 -15.536995 -1.156065 13.982718 3.951389 -46.181595 -0.013861 -1.254945 -17.618340 -29.520570 22.266846 -30.960246 4.614437 -23.818532 3.449867 32.674558 5.545218 46.458474 -12.280553 91.693137 45.035552 36.948276 -14.168381 38.295947 -9.286641 -24.770125 16.964297 0.882902 
-0.024419 -0.083230 0.214675 52.885956 74.027919 172.449721 2.141937 7.066253 11.120897 -3.555216 -25.950933 27.316201 -0.844646 8.573249 0.007430 0.000000 -0.000000 0.000000 -4.112044 9.033823 -50.743316 -5.571378 -21.570658 65.681799 8.368422 -3.969849 -2.071870 0.000000 -0.000000 0.000000 1.313619 -16.963470 57.692114 3.521409 -7.753847 -8.024274 3.305262 -9.741803 -2.468418 -20.279145 15.836904 -4.219824 -15.375959 -1.035004 14.093443 3.687136 -46.115591 0.000013 -1.366066 -17.596302 -29.397578 22.366330 -31.055309 4.458432 -23.718289 3.487020 32.903255 5.635486 46.535435 -12.173944 91.632944 44.996715 36.952331 -14.128060 38.270302 -9.235649 -24.708935 16.922399 1.077038 
-0.024240 -0.083451 0.214831 52.824902 74.068379 172.322969 1.998101 7.129134 10.721222 -3.597249 -25.528238 28.100718 -0.941319 8.547426 0.277662 0.000000 -0.000000 0.000000 -4.078976 9.099862 -50.589272 -5.649245 -21.571707 65.632259 8.277577 -3.791238 -2.170117 0.000000 -0.000000 0.000000 1.299998 -16.855059 57.772795 3.581186 -7.839924 -8.126287 3.262143 -9.692816 -2.374076 -19.971924 15.454013 -4.040689 -14.989430 -1.903711 14.633374 3.692502 -46.059122 -0.334723 -1.522946 -17.873910 -29.053709 22.471253 -30.875592 4.240925 -23.684838 3.606514 33.254619 5.819683 46.483391 -12.240848 91.623552 44.782662 36.934023 -14.160411 38.363053 -9.221135 -24.843323 16.826812 1.071646 
-0.024147 -0.082902 0.215035 52.783151 74.039003 172.329155 2.041963 7.119478 10.963922 -3.589925 -25.872622 27.829408 -0.851611 8.385175 -0.312870 0.000000 -0.000000 0.000000 -4.167758 9.043234 -50.647672 -5.679143 -21.648895 65.686199 8.413719 -3.816280 -2.078091 0.000000 -0.000000 0.000000 1.226565 -17.032430 57.772271 3.564426 -7.864869 -8.298591 3.164722 -9.663818 -2.231173 -19.916954 15.196437 -4.087868 -14.633198 -2.408133 15.215544 3.648407 -45.893515 -0.456632 -1.822921 -17.889474 -28.783613 22.883542 -31.099810 4.119577 -23.776442 3.546351 33.373907 5.869968 46.416571 -12.331340 91.851019 44.509125 37.019082 -14.224646 38.548191 -8.969059 -24.663991 16.643725 0.897013 
